PathFileType	4	(X/Y/Z)	C:/Users/opensim2020/Desktop/walking_exp_matlab/subject01_walking08_straight_02.trc																																																																																																																															
DataRate	CameraRate	NumFrames	NumMarkers	Units	OrigDataRate	OrigDataStartFrame	OrigNumFrames																																																																																																																											
100	100	4	43	mm	100	1884	311																																																																																																																											
Frame#	Time	LFHD			RFHD			LBHD			RBHD			C7			T10			CLAV			STRN			RBAK			LSHO			LUPA			LELB			LFRM			LWRA			LWRB			LFIN			RSHO			RUPA			RELB			RFRM			RWRA			RWRB			RFIN			LASI			RASI			LPSI			RPSI			LTHI			LKNE			LTIB			LANK			LHEE			LTOE			RTHI			RKNE			RTIB			RANK			RHEE			RTOE			*39			*40			*41			*42		
		X1	Y1	Z1	X2	Y2	Z2	X3	Y3	Z3	X4	Y4	Z4	X5	Y5	Z5	X6	Y6	Z6	X7	Y7	Z7	X8	Y8	Z8	X9	Y9	Z9	X10	Y10	Z10	X11	Y11	Z11	X12	Y12	Z12	X13	Y13	Z13	X14	Y14	Z14	X15	Y15	Z15	X16	Y16	Z16	X17	Y17	Z17	X18	Y18	Z18	X19	Y19	Z19	X20	Y20	Z20	X21	Y21	Z21	X22	Y22	Z22	X23	Y23	Z23	X24	Y24	Z24	X25	Y25	Z25	X26	Y26	Z26	X27	Y27	Z27	X28	Y28	Z28	X29	Y29	Z29	X30	Y30	Z30	X31	Y31	Z31	X32	Y32	Z32	X33	Y33	Z33	X34	Y34	Z34	X35	Y35	Z35	X36	Y36	Z36	X37	Y37	Z37	X38	Y38	Z38	X39	Y39	Z39	X40	Y40	Z40	X41	Y41	Z41	X42	Y42	Z42	X43	Y43	Z43
																																																																																																																																		
78	0.77	-854.41412	1670.59741	-1478.96826	-831.40088	1682.85022	-1368.18872	-958.36859	1604.74609	-1457.86853	-938.11926	1616.29529	-1340.40222	-968.23517	1424.20007	-1415.64246	-990.06708	1129.73975	-1400.56055	-823.24506	1361.63245	-1417.5332	-773.62146	1207.82227	-1425.89624	-1011.52087	1225.5116	-1338.66699	-886.29126	1387.51123	-1577.60315	-881.4043	1204.32739	-1664.04541	-853.2395	1053.86816	-1670.5188	-770.50293	972.44147	-1690.84448	-650.24152	906.49255	-1664.42664	-694.77087	876.47931	-1691.83667	-619.31714	840.17084	-1699.22766	-883.83826	1385.22681	-1263.90576	-947.60718	1183.79248	-1167.93311	-951.22821	1059.13196	-1169.56592	-931.78857	940.17493	-1139.48999	-857.23254	819.83521	-1157.55786	-903.52435	822.35095	-1119.91357	-869.73291	742.89899	-1123.22058	-828.50171	923.86713	-1521.82031	-797.9939	933.94812	-1306.92639	-1005.39496	936.69611	-1440.74194	-983.98303	939.33435	-1297.37915	-920.604	595.45544	-1560.63416	-960.15521	464.47144	-1542.75183	-1072.6062	310.19611	-1546.08142	-1173.82019	113.00169	-1490.54077	-1223.94324	101.01843	-1435.67078	-1044.5863	37.62202	-1492.50024	-787.17853	607.53485	-1237.65234	-739.17505	459.84796	-1268.35803	-746.13489	285.07602	-1256.02979	-720.73724	79.84376	-1296.16711	-764.37616	35.27259	-1344.33862	-579.04999	55.55507	-1300.91455	-852.16931	1712.88538	-1389.5542	-1973.06665	1023.32758	3101.98633	-2012.61707	1022.24573	3140.70435	NaN	NaN	NaN
79	0.78	-847.1792	1670.88806	-1477.27319	-823.95135	1683.21204	-1366.60938	-951.18372	1605.21521	-1456.15759	-930.62488	1616.67896	-1338.53369	-960.61047	1424.43408	-1414.04651	-981.65137	1129.67529	-1399.27612	-815.71594	1362.1731	-1415.95972	-765.79816	1208.37805	-1424.27991	-1003.72662	1225.52588	-1337.10571	-878.7735	1387.83008	-1576.10364	-874.33295	1204.46277	-1662.10645	-846.45142	1053.95825	-1668.6488	-764.21338	972.00586	-1689.02869	-644.59821	905.01221	-1662.85449	-689.40442	875.39783	-1690.21692	-614.34082	838.63245	-1697.8512	-876.39655	1385.15503	-1262.18823	-939.51892	1183.41187	-1166.41467	-942.81421	1058.66101	-1168.12451	-923.08887	939.73499	-1138.18213	-848.24652	819.63409	-1156.34595	-894.08105	821.8446	-1118.74329	-860.4328	742.70764	-1122.03271	-819.42682	923.69147	-1520.41272	-789.13641	934.2663	-1305.57117	-996.3595	936.8302	-1439.54968	-975.0802	940.18414	-1296.1228	-911.51398	595.27557	-1559.37012	-951.51544	464.44656	-1542.03296	-1066.41357	311.88608	-1545.67773	-1171.26599	116.47552	-1491.12048	-1221.66711	105.62976	-1436.37744	-1044.29456	37.64897	-1492.55396	-779.76367	607.99469	-1236.3136	-731.56805	460.15744	-1267.09229	-739.71515	285.30719	-1254.26794	-719.30267	79.45679	-1295.6062	-763.55371	35.90376	-1343.70117	-578.01892	51.64194	-1300.72205	-844.67163	1713.3468	-1387.90735	-1973.12854	1023.3894	3101.9668	-2012.54883	1022.0932	3140.63232	NaN	NaN	NaN
80	0.79	-839.98474	1671.23413	-1475.65979	-816.64044	1683.61804	-1364.96387	-943.95905	1605.60815	-1454.38318	-923.21368	1617.01465	-1336.82935	-953.12811	1424.62109	-1412.47571	-973.33875	1129.70642	-1398.11548	-808.09253	1362.64575	-1414.36389	-757.67053	1209.08838	-1422.78076	-995.87732	1225.5293	-1335.63062	-871.11499	1388.30261	-1574.51245	-867.23999	1204.67859	-1660.06091	-839.83679	1054.19653	-1666.73474	-758.39795	971.54163	-1687.14587	-639.27252	903.52155	-1661.21521	-684.37311	874.23248	-1688.37463	-609.70911	836.90869	-1696.42004	-869.16132	1385.32263	-1260.73694	-931.36243	1183.19177	-1164.97559	-934.26453	1058.48352	-1166.75964	-914.04425	939.52838	-1136.74792	-839.1424	819.74048	-1155.0238	-885.22333	822.01343	-1117.5365	-851.16241	742.74469	-1120.61963	-810.0946	923.45294	-1518.73145	-780.41962	934.75952	-1304.02515	-987.24359	937.18896	-1438.578	-966.2597	941.33917	-1295.09521	-902.11914	595.11353	-1558.14417	-942.48889	464.53738	-1541.45862	-1060.07666	314.06668	-1545.67444	-1168.35046	120.10852	-1491.75037	-1219.06824	110.70981	-1437.23035	-1043.91382	37.7674	-1492.5752	-771.13812	609.09821	-1235.48145	-724.39099	460.0936	-1265.70911	-734.81476	284.9902	-1253.03564	-717.39838	78.81023	-1294.85474	-762.84338	36.48779	-1343.18652	-577.1817	48.45722	-1300.20691	-837.22296	1713.72461	-1386.26978	-1973.17249	1023.49811	3101.81445	-2012.58459	1022.06079	3140.69531	NaN	NaN	NaN
81	0.8	-832.76636	1671.5752	-1473.96558	-809.2746	1683.95959	-1363.34692	-936.68384	1605.91772	-1452.58533	-915.78632	1617.39233	-1335.00378	-945.80573	1424.79419	-1410.9679	-965.19434	1129.84192	-1396.89392	-800.52429	1363.17261	-1412.68066	-749.70709	1209.85193	-1421.24731	-988.01099	1225.59937	-1334.34033	-863.38959	1388.8595	-1572.875	-860.19464	1205.05969	-1658.20313	-833.3797	1054.58337	-1664.82605	-752.69928	971.31842	-1685.36401	-634.16968	902.06049	-1659.57336	-679.64667	873.19482	-1686.64417	-605.40057	835.19293	-1694.93604	-861.85577	1385.6051	-1259.1637	-923.22681	1183.18909	-1163.5791	-925.6521	1058.53064	-1165.42847	-905.09576	939.68927	-1135.3772	-829.87378	819.99939	-1153.70032	-875.84613	822.15717	-1116.08801	-841.76801	743.11761	-1119.20508	-800.61273	923.44958	-1517.00916	-771.69794	935.4483	-1302.3335	-978.13019	937.83411	-1437.70325	-957.4389	942.64398	-1294.24255	-892.40082	595.04578	-1556.97839	-932.95789	464.68768	-1541.00476	-1053.12842	316.06195	-1545.37036	-1165.31116	124.42338	-1492.70874	-1215.81738	116.04362	-1437.94287	-1043.40637	37.94876	-1492.60168	-761.87073	609.47626	-1234.26038	-717.41486	459.51385	-1264.17114	-730.87732	284.10422	-1251.5155	-716.2486	78.79523	-1294.27722	-762.20129	37.0219	-1342.71216	-576.29047	46.24209	-1299.81323	-829.93164	1714.14807	-1384.59912	-1972.94019	1023.91321	3102.06226	-2012.56396	1022.11346	3140.58179	NaN	NaN	NaN
